<?xml version="1.0"?>
<svg xmlns="http://www.w3.org/2000/svg" class="document" color="black" style="background: white" viewBox="0 0 6069 2386"><style>.cartouche { color: red }
.glyph { color: black }</style><svg class="line" x="0" y="0"><svg class="cartouche" viewBox="0 0 6069 2386" x="0" y="0"><path stroke="currentColor" stroke-width="113" fill="none" d="M 795 56 A 739 1137 0 0 0 795 2330 h 4479 A 739 1137 0 0 0 5274 56 z M 6013 0 v 2386"/><svg x="795" y="169"><svg data-gardiner="A1" data-text="&#x13000;" class="glyph" x="0" y="0">
   
<g transform="translate(1441, 0) scale(-1, 1) translate(721, 0)"><path fill="currentColor" d="M278 1748q15 -27 26 -56.5t11 -61.5q0 -51 -10.5 -100t-13.5 -100q-68 0 -134 16t-129.5 40t-126 53t-122.5 56q-47 21 -94 41t-88 52q19 18 36.5 36t34.5 38q113 -32 229 -32q84 0 166 12.5t165 23.5zM-333 1603q1 -14 1.5 -29t0.5 -29q0 -75 -18.5 -148t-49.5 -142 q12 -26 25 -52t28 -51l-35 -16q-26 0 -45.5 17.5t-19.5 43.5q0 54 9 107t21.5 105t26.5 104t24 105zM-292 1585q64 -31 128.5 -58.5t128.5 -59.5q-32 -39 -63.5 -79t-64.5 -78.5t-69.5 -74t-78.5 -64.5l-44 81q29 66 47.5 136t18.5 142q0 28 -3 55zM-333 896 q-44 -67 -92 -130.5t-112 -113.5q-10 -40 -32.5 -80.5t-57.5 -63.5q11 15 20 31.5t15 33.5l-9 15l-23 -1l63 63q8 8 20 41q3 8 17.5 30t35 49.5t44 57.5t44.5 55.5t37 41.5t21 16q42 0 86 -29t85 -69.5t76 -84t61 -73.5l30 8q10 55 24 109.5t26.5 109.5t21 110t8.5 112 q0 80 -18 156.5t-34 154.5q65 -23 131.5 -38t135.5 -15q0 -97 10.5 -192t27.5 -190q-30 -13 -64.5 -28.5t-68 -35t-62.5 -43t-46 -52.5l19 -21l-31 -24v-41l20 -20q33 0 59.5 12t48 32t37.5 45.5t27 53.5q18 11 38 18t40 13q4 -22 9 -53t15.5 -61t27.5 -52.5t44 -27.5l31 20 q29 67 56 134.5t65 130.5l-11 13q-86 -21 -169 -48t-165 -58q-13 -21 -25.5 -43t-27.5 -40t-35 -31.5t-48 -18.5q35 15 62 41.5t40 62.5l-13 12q53 34 109.5 60.5t115 49t118 43t117.5 42.5l8 -9q0 -62 -19.5 -118.5t-41.5 -113.5q-14 -36 -26.5 -72.5t-32.5 -69.5 q-19 -32 -49 -60.5t-65.5 -50.5t-74 -37t-75.5 -19l-14 -15v-45q-35 -7 -59.5 -28t-24.5 -59q0 -22 6.5 -43t14.5 -41q9 -7 15.5 -17t6.5 -21q0 -13 -8 -26l-28 26l-33 12l-145 -48q-4 30 -16.5 57t-23.5 55q14 3 21.5 12t11 20.5t6 24t6.5 23.5q48 5 75 24.5t38 68.5 l-15 19q-86 26 -144 59t-103.5 75.5t-86.5 96t-92 121.5h-27zM529 966q-23 -51 -46 -101t-47 -100q-15 13 -23.5 33.5t-13.5 43.5t-7.5 46.5t-5.5 41.5zM164 250q9 -14 22.5 -23t28.5 -16h5q28 0 39.5 20.5t11.5 44.5q0 41 -30 64q-5 14 -9.5 28.5t-4.5 29.5q0 24 19 35 t39 14q39 -43 60.5 -97.5t21.5 -112.5q0 -41 -18 -67.5t-46 -41.5t-62.5 -20.5t-68.5 -5.5q-25 0 -50 5t-45.5 16t-35 30t-20.5 47zM-491 1845l-11 -15q-20 11 -41 22q-10 5 -21 9q36 -11 73 -16zM-354 1796q-38 -42 -78 -81q-17 17 -29 37t-17 43q12 25 30 46t50 21 q64 0 128 -4.5t128 -9.5t128 -9.5t128 -4.5q48 0 95 5.5t94 12.5t94 14.5t95 10.5l-154 -58q-8 -14 -22 -22t-30 -11l-52 17q-85 -10 -168.5 -22t-168.5 -12q-59 0 -116 8.5t-114 25.5zM-704 1899l16 -26q40 -28 84.5 -44.5t88.5 -36.5q3 -26 14 -48.5t26.5 -41.5t35 -35 t40.5 -30q-13 -54 -28 -108.5t-28 -109.5t-22 -110t-9 -112q0 -21 9.5 -39.5t25.5 -32t36 -21t40 -7.5q14 0 33.5 11t31.5 19q53 34 92 68t72 71.5t64 78.5t69 89q15 -75 32 -149t17 -151q0 -69 -15 -138t-32 -136q-8 -28 -16 -55.5t-8 -56.5q-33 30 -66.5 70t-70 76 t-78.5 61t-92 25q-14 0 -36.5 -19t-49 -48.5t-53.5 -65.5t-50.5 -70.5t-40.5 -63t-22 -42.5q-28 -23 -52.5 -49.5t-46.5 -55.5l-2 -19l14 -17l40 15q-31 -26 -67 -52l-3 -23l33 -29q66 24 111.5 68.5t57.5 116.5q59 45 105 101.5t86 117.5q45 -60 86 -111t87.5 -92.5 t102.5 -73.5t132 -54q-6 -20 -22 -36q-37 -10 -69 -11q-3 -8 -7 -21t-9 -25t-13 -21t-19 -9l-15 -24q4 -17 10.5 -32.5t13.5 -31.5t12 -32t5 -34q0 -47 14 -80t39.5 -54t61.5 -31t80 -10t86.5 7.5t75.5 27.5t53 53.5t20 86.5q0 67 -24 129t-72 110v32q37 3 71 17t65 34 t60 44.5t55 47.5q20 40 46 96.5t48.5 117t38 119t15.5 102.5q0 17 -13.5 31t-27.5 22q-76 -28 -152 -54.5t-151 -58.5q-16 96 -26 192t-10 193q0 28 3.5 55t8 54.5t8 54.5t3.5 55q0 64 -31 121q27 13 42 37q57 20 111.5 42t105.5 54l10 16l-7 22q-59 -1 -117.5 -9t-117 -17 t-117.5 -16t-118 -7q-64 0 -128 4.5t-128 9.5t-128 9.5t-128 4.5q-34 0 -62 -19q-27 3 -54 9t-54 12.5t-54 11.5t-55 6zM21 284l19 -17q14 3 29 8t25 17q-14 4 -27 7.5t-27 6.5z" id="A1"/></g></svg><svg data-gardiner="A1" data-text="&#x13000;" class="glyph" x="1441" y="0"><g transform="translate(721, 0)"><use href="#A1"/></g></svg><svg class="subdivision" viewBox="0 0 1106 4096" width="553" height="2048" x="2882" y="0"><svg data-gardiner="B1" data-text="&#x13050;" class="glyph" x="0" y="0">
   
<g transform="translate(553, 0)"><path fill="currentColor" d="M-34 1403q-19 -19 -46 -54.5t-58 -78t-65 -86.5t-67.5 -80t-64.5 -59t-56 -23q-20 0 -33 10t-20.5 25.5t-10.5 33.5t-3 34q0 71 18.5 139t40 135.5t40 135.5t18.5 139q0 38 -20.5 63.5t-47.5 47.5t-54 45t-40 54h875q-17 0 -27 -11q-11 -11 -16.5 -27t-6.5 -34t-1 -31 q0 -87 11.5 -172.5t27.5 -171t33.5 -170.5t30.5 -170q-27 -7 -33.5 -28.5t-6.5 -44.5q0 -51 4 -102.5t4 -102.5q0 -9 -1.5 -20.5t-5.5 -22.5t-11 -18.5t-19 -7.5q-14 0 -22 12.5t-11.5 30t-4 35t-0.5 27.5q0 33 5.5 65.5t5.5 65.5t-22.5 56.5t-63.5 23.5q-26 0 -42 -22 t-24.5 -52t-11 -61.5t-2.5 -50.5t1 -38t3 -38q-24 73 -84 298q-20 75 -42.5 149t-51.5 146zM-28 496q29 6 57.5 16.5t54.5 26t47.5 36.5t36.5 47q10 -71 38.5 -137t57.5 -130q0 -8 -3.5 -19t-13.5 -11q-17 0 -28 8l-23 -1q-43 -30 -90 -52t-97 -37q-4 21 -12.5 39.5 t-40.5 72.5q-10 18 -17 38q16 4 22 16.5t8 26.5t2 27q0 3 -0.5 6t-0.5 6q0 12 2 21zM503 878v-42q0 -35 -1 -95.5t-9.5 -146.5t-26 -173.5t-49 -158t-79 -115t-115.5 -44.5q-62 0 -114.5 26.5t-87.5 77.5q51 14 98 35.5t89 52.5q16 -8 33 -8q32 0 47.5 21.5t15.5 50.5 q0 16 -11 44.5t-26 60t-29 62t-20 50.5q-16 54 -17 110.5t-1 112.5q0 12 0.5 33.5t3 46.5t6 51.5t9.5 47.5t14 34t18 13h2q15 -1 24 -9.5t9 -20.5v-2q-3 -37 -6 -72.5t-3 -72.5q0 -18 3.5 -42t12.5 -45t24 -35.5t39 -14.5q27 0 42 16t23 38.5t10 48t2 45.5q0 40 -5 79.5 t-5 79.5q0 6 1 15t5 17.5t13.5 14.5t25.5 6q12 0 21.5 -9t10.5 -29zM-518 1922q-11 0 -18 -12.5t-7 -21.5q0 -23 12 -41.5t30 -35t39.5 -32t39.5 -31t30 -33t12 -38.5q0 -71 -18.5 -139t-41 -134.5t-41 -134.5t-18.5 -139q0 -26 5.5 -52.5t18 -47.5t33 -34.5t51.5 -13.5 q29 0 62 21t67 55t68 75.5t65 82t57 76.5t44 57q52 -164 93.5 -328.5t84.5 -331.5q-4 -44 -25.5 -69t-52 -40.5t-65.5 -27.5t-66 -28q-11 -22 -12.5 -46t-1.5 -48q-14 -2 -24 -9t-10 -14q0 -3 2 -7q13 -36 34.5 -67.5t35.5 -66.5q5 -14 8.5 -28.5t8.5 -28.5q14 -36 39.5 -63 t57.5 -46t69 -28.5t74 -9.5q60 0 106 28.5t79.5 77t57 112.5t38.5 135.5t23 146t12 143t4.5 128t0.5 100.5q0 36 -1.5 68.5t-7.5 57t-18.5 38.5t-35.5 14q-4 0 -8.5 -0.5t-9.5 -1.5q-11 85 -28.5 169t-34 167.5t-28.5 168t-12 171.5q0 29 10 42t23.5 21.5t28 18t22.5 30.5 l-21 25h-940zM17 304q17 0 30 11t24 21q-26 14 -55 14q-8 0 -15 -3.5t-7 -13.5q0 -3 1 -5.5t2 -5.5z" id="B1"/></g></svg><svg data-gardiner="C1" data-text="&#x1305A;" class="glyph" x="59.5" y="2048">
   
<g transform="translate(494, 0)"><path fill="currentColor" d="M253 1737q32 -131 50.5 -262.5t18.5 -267.5q0 -85 -11 -168t-42 -161l-147 62q-32 123 -59 245.5t-50 247.5q-4 21 -13.5 35t-33.5 14q-17 0 -33 -22t-33 -54.5t-36.5 -71t-43.5 -71.5t-55.5 -55t-71.5 -22t-56.5 23t-16.5 60q0 49 14 96t29.5 94.5t29.5 94.5t14 97 q0 57 -16.5 86.5t-40 49t-48 39t-41.5 58.5h804q-13 -41 -44 -71.5t-62 -57.5zM-3 792q44 4 76 35t47 70l135 -56q-15 -30 -31 -70.5t-16 -74.5q0 -23 7 -43t7 -43q-10 0 -17.5 4t-17.5 4q-49 0 -96.5 -17t-95.5 -27q-4 37 -18.5 71.5t-25.5 69.5q17 7 25 14t11.5 16t5 20.5 t4.5 26.5zM403 1314q23 -107 30 -214t7 -215q0 -61 -9.5 -145t-37 -158.5t-79 -127t-133.5 -52.5q-29 0 -58 10t-53 28.5t-42 42.5t-26 53l184 42q19 -8 41 -8q15 0 26 9t11 25q0 22 -8 40.5t-8 40.5q0 28 7.5 54.5t18.5 52.5t22.5 52t20.5 52q22 77 33.5 156.5t11.5 159.5 q0 27 -1.5 51.5t-4.5 50.5h47zM32 244q0 56 39.5 89.5t92.5 33.5q58 0 93.5 -35.5t35.5 -92.5q0 -28 -9.5 -53t-26.5 -44.5t-41 -31t-53 -11.5q-30 0 -54 11.5t-41.5 32t-26.5 46.5t-9 55zM-466 1922l-18 -23q14 -56 51.5 -90t81.5 -65q7 -26 13 -51.5t6 -52.5 q0 -48 -13.5 -92.5t-30.5 -87.5t-31 -87.5t-14 -92.5q0 -57 27.5 -93t88.5 -36q64 0 102 32t63 78t48 96t57 86l7 -2q7 -24 9.5 -49.5t5.5 -50.5q12 -107 41.5 -210t57.5 -206q-6 -26 -21 -45.5t-34 -35.5q-11 18 -24 41t-28 44t-35 35t-45 14q-12 0 -22.5 -4.5t-10.5 -19.5 q0 -11 11 -12t18 -1q32 -20 54 -49t37 -63q-10 -1 -17 -10t-11 -20.5t-6 -23.5t-5 -20l-7 -4l-12 -1l-19 -24q11 -37 25.5 -71t20.5 -74q11 -68 36 -114t91 -76q-11 -7 -21.5 -14.5t-18.5 -18.5q-26 22 -65 22q-22 0 -37.5 -17.5t-26 -40.5t-15 -49t-4.5 -43t4 -31l-15 -10 q0 -11 11 -13.5t19 -2.5q26 0 41 12.5t15 39.5q0 23 -7 43t-7 43q0 18 8 29.5t27 11.5q11 0 20 -3.5t17 -7.5q-18 -20 -25 -44.5t-7 -52.5q0 -37 12.5 -70t34.5 -57.5t53 -39.5t69 -15q54 0 95.5 28t61.5 79q10 27 10 54v9q0 28 14 52q18 34 50.5 52t66.5 30 q-18 -3 -38.5 -6.5t-40.5 -9.5t-36.5 -17.5t-24.5 -30.5q-10 23 -24 45t-38 34q74 25 119 89t67.5 145t29.5 166.5t7 151.5q0 103 -12.5 204.5t-33.5 201.5l-19 13h-63q-4 99 -22 193.5t-41 188.5q16 18 36 36.5t37 39t28 43t11 50.5l-20 19h-850zM17 666q-11 0 -13 -8 t-2 -17q0 -8 3 -15t12 -7q8 0 29 12t29 17q-3 2 -12 4.5t-18 5.5t-17 5.5t-11 2.5z" id="C1"/></g></svg></svg><svg data-gardiner="N7" data-text="&#x131F5;" class="glyph" x="3435" y="0">
   
<g transform="translate(522, 0)"><path fill="currentColor" d="M-490 1922l221 -875h73q-72 -30 -130 -79t-99.5 -110.5t-64 -133.5t-22.5 -150q0 -105 40.5 -198.5t110 -163t162.5 -110t199 -40.5t199.5 40.5t162.5 110t109.5 163t40.5 198.5q0 78 -22.5 150.5t-63.5 134.5t-99.5 110.5t-131.5 77.5h73l221 875h-979zM0 1044 q98 0 183 -37t149 -100.5t101 -149.5t37 -183t-37 -182.5t-101 -149.5t-149 -101t-183 -37q-96 0 -182 37t-150.5 101.5t-101.5 149.5t-37 182q0 96 37 181.5t101.5 150t150.5 101.5t182 37zM-167 1858h333l-140 -439l120 -309h-293l120 309zM-229 1858l141 -439l-121 -309 l-200 748h180zM228 1858h180l-200 -748l-120 309zM-8 689q-48 0 -81 -32.5t-33 -80.5t33 -81.5t81 -33.5t80.5 33.5t32.5 81.5t-32.5 80.5t-80.5 32.5zM-8 647q30 0 50.5 -20.5t20.5 -50.5q0 -31 -19.5 -52t-51.5 -21q-30 0 -51.5 21t-21.5 52q0 30 21.5 50.5t51.5 20.5z " id="N7"/></g></svg></svg></svg></svg></svg>
